# xmcd
#
# Track frame offsets: 
#        150
#        18067
#        37256
#        49023
#        68213
#        86070
#        101139
#        115328
#        129407
#        144017
#        161090
#        190008
#
# Disc length: 2551 seconds
#
# Revision: 4
# Processed by: cddbd v1.5.2PL0 Copyright (c) Steve Scherf et al.
# Submitted via: ExactAudioCopy v0.99pb5
#
DISCID=9e09f50c
DTITLE=Josh Gracin - Josh Gracin
DYEAR=2004
DGENRE=Country
TTITLE0=I Want To Live
TTITLE1=Wheels
TTITLE2=Nothin' To Lose
TTITLE3=Brass Bed
TTITLE4=Peace Of Mind
TTITLE5=Endless Helpless Hoping
TTITLE6=No One To Share The Blame
TTITLE7=I Would Look Good With You
TTITLE8=Turn It Up
TTITLE9=The Long One
TTITLE10=The Other Little Soldier
TTITLE11=unknown - Data
EXTD=YEAR: 2004
EXTT0=
EXTT1=
EXTT2=
EXTT3=
EXTT4=
EXTT5=
EXTT6=
EXTT7=
EXTT8=
EXTT9=
EXTT10=
EXTT11=
PLAYORDER=
